<svg width="236" height="15" viewBox="0 0 236 15" fill="none" xmlns="http://www.w3.org/2000/svg">
<path d="M229.124 1.23264C225.269 4.29896 223.936 7.04695 215.679 8.54568C205.515 10.392 195.399 5.98673 190.39 2.37471C188.662 1.12805 184.47 0.888328 182.856 2.37471C175.781 8.88999 160.111 7.29901 153.425 1.01111C151.782 -0.53569 146.223 -0.259588 145.54 1.51004C141.783 11.2573 124.914 12.2889 113.617 5.22405C114.85 3.3219 108.417 2.02715 106.664 3.88903C97.18 13.9605 78.665 12.8353 67.9189 3.84746C66.0538 2.28766 61.8755 2.83467 60.6706 4.30611C51.9371 14.9759 38.3343 9.90019 30.701 2.55597C29.2143 1.1248 24.9744 1.62047 24.0781 2.97498C19.9065 9.28302 13.034 10.4608 1.45592 12.0927C-0.724451 12.4007 -0.387669 14.2327 2.01006 14.078C15.2761 13.2218 22.5216 12.0791 27.9437 7.29576C39.083 15.7177 54.634 17.438 65.0689 8.57622C78.5993 16.7767 100.335 17.7115 111.104 7.95515C123.065 15.8334 143.126 15.4455 151.159 6.8605C161.523 12.7794 176.607 13.611 187.043 6.98719C202.574 14.5477 234.338 16.2401 235.47 2.06678C235.611 0.37641 230.829 -0.124463 229.124 1.23264Z" fill="#00B2A0"/>
</svg>
